<svg width="277" height="277" viewBox="0 0 277 277" fill="none" xmlns="http://www.w3.org/2000/svg">
<path d="M138.5 157.297C168.763 157.297 193.297 132.763 193.297 102.5C193.297 72.2365 168.763 47.7031 138.5 47.7031C108.237 47.7031 83.7031 72.2365 83.7031 102.5C83.7031 132.763 108.237 157.297 138.5 157.297Z" stroke="#FF7A16" stroke-width="10"/>
<path opacity="0.15" d="M138.5 141.641C160.117 141.641 177.641 124.117 177.641 102.5C177.641 80.8832 160.117 63.3594 138.5 63.3594C116.883 63.3594 99.3594 80.8832 99.3594 102.5C99.3594 124.117 116.883 141.641 138.5 141.641Z" stroke="#FF7A16" stroke-width="10"/>
<path d="M138.5 81.625V123.375M117.625 102.5H159.375" stroke="#0F172A" stroke-width="10" stroke-linecap="round" stroke-linejoin="round"/>
<path d="M58.25 225.916V222.652C58.25 222.402 58.1992 222.186 58.0977 222.002C58 221.814 57.8516 221.67 57.6523 221.568C57.4531 221.467 57.207 221.416 56.9141 221.416C56.6406 221.416 56.4004 221.463 56.1934 221.557C55.9902 221.65 55.8301 221.773 55.7129 221.926C55.5996 222.078 55.543 222.242 55.543 222.418H54.459C54.459 222.191 54.5176 221.967 54.6348 221.744C54.752 221.521 54.9199 221.32 55.1387 221.141C55.3613 220.957 55.627 220.812 55.9355 220.707C56.248 220.598 56.5957 220.543 56.9785 220.543C57.4395 220.543 57.8457 220.621 58.1973 220.777C58.5527 220.934 58.8301 221.17 59.0293 221.486C59.2324 221.799 59.334 222.191 59.334 222.664V225.617C59.334 225.828 59.3516 226.053 59.3867 226.291C59.4258 226.529 59.4824 226.734 59.5566 226.906V227H58.4258C58.3711 226.875 58.3281 226.709 58.2969 226.502C58.2656 226.291 58.25 226.096 58.25 225.916ZM58.4375 223.156L58.4492 223.918H57.3535C57.0449 223.918 56.7695 223.943 56.5273 223.994C56.2852 224.041 56.082 224.113 55.918 224.211C55.7539 224.309 55.6289 224.432 55.543 224.58C55.457 224.725 55.4141 224.895 55.4141 225.09C55.4141 225.289 55.459 225.471 55.5488 225.635C55.6387 225.799 55.7734 225.93 55.9531 226.027C56.1367 226.121 56.3613 226.168 56.627 226.168C56.959 226.168 57.252 226.098 57.5059 225.957C57.7598 225.816 57.9609 225.645 58.1094 225.441C58.2617 225.238 58.3438 225.041 58.3555 224.85L58.8184 225.371C58.791 225.535 58.7168 225.717 58.5957 225.916C58.4746 226.115 58.3125 226.307 58.1094 226.49C57.9102 226.67 57.6719 226.82 57.3945 226.941C57.1211 227.059 56.8125 227.117 56.4688 227.117C56.0391 227.117 55.6621 227.033 55.3379 226.865C55.0176 226.697 54.7676 226.473 54.5879 226.191C54.4121 225.906 54.3242 225.588 54.3242 225.236C54.3242 224.896 54.3906 224.598 54.5234 224.34C54.6562 224.078 54.8477 223.861 55.0977 223.689C55.3477 223.514 55.6484 223.381 56 223.291C56.3516 223.201 56.7441 223.156 57.1777 223.156H58.4375ZM67.707 225.318C67.707 225.162 67.6719 225.018 67.6016 224.885C67.5352 224.748 67.3965 224.625 67.1855 224.516C66.9785 224.402 66.666 224.305 66.248 224.223C65.8965 224.148 65.5781 224.061 65.293 223.959C65.0117 223.857 64.7715 223.734 64.5723 223.59C64.377 223.445 64.2266 223.275 64.1211 223.08C64.0156 222.885 63.9629 222.656 63.9629 222.395C63.9629 222.145 64.0176 221.908 64.127 221.686C64.2402 221.463 64.3984 221.266 64.6016 221.094C64.8086 220.922 65.0566 220.787 65.3457 220.689C65.6348 220.592 65.957 220.543 66.3125 220.543C66.8203 220.543 67.2539 220.633 67.6133 220.812C67.9727 220.992 68.248 221.232 68.4395 221.533C68.6309 221.83 68.7266 222.16 68.7266 222.523H67.6426C67.6426 222.348 67.5898 222.178 67.4844 222.014C67.3828 221.846 67.2324 221.707 67.0332 221.598C66.8379 221.488 66.5977 221.434 66.3125 221.434C66.0117 221.434 65.7676 221.48 65.5801 221.574C65.3965 221.664 65.2617 221.779 65.1758 221.92C65.0938 222.061 65.0527 222.209 65.0527 222.365C65.0527 222.482 65.0723 222.588 65.1113 222.682C65.1543 222.771 65.2285 222.855 65.334 222.934C65.4395 223.008 65.5879 223.078 65.7793 223.145C65.9707 223.211 66.2148 223.277 66.5117 223.344C67.0312 223.461 67.459 223.602 67.7949 223.766C68.1309 223.93 68.3809 224.131 68.5449 224.369C68.709 224.607 68.791 224.896 68.791 225.236C68.791 225.514 68.7324 225.768 68.6152 225.998C68.502 226.229 68.3359 226.428 68.1172 226.596C67.9023 226.76 67.6445 226.889 67.3438 226.982C67.0469 227.072 66.7129 227.117 66.3418 227.117C65.7832 227.117 65.3105 227.018 64.9238 226.818C64.5371 226.619 64.2441 226.361 64.0449 226.045C63.8457 225.729 63.7461 225.395 63.7461 225.043H64.8359C64.8516 225.34 64.9375 225.576 65.0938 225.752C65.25 225.924 65.4414 226.047 65.668 226.121C65.8945 226.191 66.1191 226.227 66.3418 226.227C66.6387 226.227 66.8867 226.188 67.0859 226.109C67.2891 226.031 67.4434 225.924 67.5488 225.787C67.6543 225.65 67.707 225.494 67.707 225.318ZM71.293 221.92V227H70.2031V220.66H71.2344L71.293 221.92ZM71.0703 223.59L70.5664 223.572C70.5703 223.139 70.627 222.738 70.7363 222.371C70.8457 222 71.0078 221.678 71.2227 221.404C71.4375 221.131 71.7051 220.92 72.0254 220.771C72.3457 220.619 72.7168 220.543 73.1387 220.543C73.4355 220.543 73.709 220.586 73.959 220.672C74.209 220.754 74.4258 220.885 74.6094 221.064C74.793 221.244 74.9355 221.475 75.0371 221.756C75.1387 222.037 75.1895 222.377 75.1895 222.775V227H74.1055V222.828C74.1055 222.496 74.0488 222.23 73.9355 222.031C73.8262 221.832 73.6699 221.688 73.4668 221.598C73.2637 221.504 73.0254 221.457 72.752 221.457C72.4316 221.457 72.1641 221.514 71.9492 221.627C71.7344 221.74 71.5625 221.896 71.4336 222.096C71.3047 222.295 71.2109 222.523 71.1523 222.781C71.0977 223.035 71.0703 223.305 71.0703 223.59ZM75.1777 222.992L74.4512 223.215C74.4551 222.867 74.5117 222.533 74.6211 222.213C74.7344 221.893 74.8965 221.607 75.1074 221.357C75.3223 221.107 75.5859 220.91 75.8984 220.766C76.2109 220.617 76.5684 220.543 76.9707 220.543C77.3105 220.543 77.6113 220.588 77.873 220.678C78.1387 220.768 78.3613 220.906 78.541 221.094C78.7246 221.277 78.8633 221.514 78.957 221.803C79.0508 222.092 79.0977 222.436 79.0977 222.834V227H78.0078V222.822C78.0078 222.467 77.9512 222.191 77.8379 221.996C77.7285 221.797 77.5723 221.658 77.3691 221.58C77.1699 221.498 76.9316 221.457 76.6543 221.457C76.416 221.457 76.2051 221.498 76.0215 221.58C75.8379 221.662 75.6836 221.775 75.5586 221.92C75.4336 222.061 75.3379 222.223 75.2715 222.406C75.209 222.59 75.1777 222.785 75.1777 222.992ZM84.4766 225.916V222.652C84.4766 222.402 84.4258 222.186 84.3242 222.002C84.2266 221.814 84.0781 221.67 83.8789 221.568C83.6797 221.467 83.4336 221.416 83.1406 221.416C82.8672 221.416 82.627 221.463 82.4199 221.557C82.2168 221.65 82.0566 221.773 81.9395 221.926C81.8262 222.078 81.7695 222.242 81.7695 222.418H80.6855C80.6855 222.191 80.7441 221.967 80.8613 221.744C80.9785 221.521 81.1465 221.32 81.3652 221.141C81.5879 220.957 81.8535 220.812 82.1621 220.707C82.4746 220.598 82.8223 220.543 83.2051 220.543C83.666 220.543 84.0723 220.621 84.4238 220.777C84.7793 220.934 85.0566 221.17 85.2559 221.486C85.459 221.799 85.5605 222.191 85.5605 222.664V225.617C85.5605 225.828 85.5781 226.053 85.6133 226.291C85.6523 226.529 85.709 226.734 85.7832 226.906V227H84.6523C84.5977 226.875 84.5547 226.709 84.5234 226.502C84.4922 226.291 84.4766 226.096 84.4766 225.916ZM84.6641 223.156L84.6758 223.918H83.5801C83.2715 223.918 82.9961 223.943 82.7539 223.994C82.5117 224.041 82.3086 224.113 82.1445 224.211C81.9805 224.309 81.8555 224.432 81.7695 224.58C81.6836 224.725 81.6406 224.895 81.6406 225.09C81.6406 225.289 81.6855 225.471 81.7754 225.635C81.8652 225.799 82 225.93 82.1797 226.027C82.3633 226.121 82.5879 226.168 82.8535 226.168C83.1855 226.168 83.4785 226.098 83.7324 225.957C83.9863 225.816 84.1875 225.645 84.3359 225.441C84.4883 225.238 84.5703 225.041 84.582 224.85L85.0449 225.371C85.0176 225.535 84.9434 225.717 84.8223 225.916C84.7012 226.115 84.5391 226.307 84.3359 226.49C84.1367 226.67 83.8984 226.82 83.6211 226.941C83.3477 227.059 83.0391 227.117 82.6953 227.117C82.2656 227.117 81.8887 227.033 81.5645 226.865C81.2441 226.697 80.9941 226.473 80.8145 226.191C80.6387 225.906 80.5508 225.588 80.5508 225.236C80.5508 224.896 80.6172 224.598 80.75 224.34C80.8828 224.078 81.0742 223.861 81.3242 223.689C81.5742 223.514 81.875 223.381 82.2266 223.291C82.5781 223.201 82.9707 223.156 83.4043 223.156H84.6641ZM88.3496 221.656V227H87.2656V220.66H88.3203L88.3496 221.656ZM90.3301 220.625L90.3242 221.633C90.2344 221.613 90.1484 221.602 90.0664 221.598C89.9883 221.59 89.8984 221.586 89.7969 221.586C89.5469 221.586 89.3262 221.625 89.1348 221.703C88.9434 221.781 88.7812 221.891 88.6484 222.031C88.5156 222.172 88.4102 222.34 88.332 222.535C88.2578 222.727 88.209 222.938 88.1855 223.168L87.8809 223.344C87.8809 222.961 87.918 222.602 87.9922 222.266C88.0703 221.93 88.1895 221.633 88.3496 221.375C88.5098 221.113 88.7129 220.91 88.959 220.766C89.209 220.617 89.5059 220.543 89.8496 220.543C89.9277 220.543 90.0176 220.553 90.1191 220.572C90.2207 220.588 90.291 220.605 90.3301 220.625ZM94.2793 220.66V221.492H90.8516V220.66H94.2793ZM92.0117 219.119H93.0957V225.43C93.0957 225.645 93.1289 225.807 93.1953 225.916C93.2617 226.025 93.3477 226.098 93.4531 226.133C93.5586 226.168 93.6719 226.186 93.793 226.186C93.8828 226.186 93.9766 226.178 94.0742 226.162C94.1758 226.143 94.252 226.127 94.3027 226.115L94.3086 227C94.2227 227.027 94.1094 227.053 93.9688 227.076C93.832 227.104 93.666 227.117 93.4707 227.117C93.2051 227.117 92.9609 227.064 92.7383 226.959C92.5156 226.854 92.3379 226.678 92.2051 226.432C92.0762 226.182 92.0117 225.846 92.0117 225.424V219.119ZM98.1816 227.117C97.7402 227.117 97.3398 227.043 96.9805 226.895C96.625 226.742 96.3184 226.529 96.0605 226.256C95.8066 225.982 95.6113 225.658 95.4746 225.283C95.3379 224.908 95.2695 224.498 95.2695 224.053V223.807C95.2695 223.291 95.3457 222.832 95.498 222.43C95.6504 222.023 95.8574 221.68 96.1191 221.398C96.3809 221.117 96.6777 220.904 97.0098 220.76C97.3418 220.615 97.6855 220.543 98.041 220.543C98.4941 220.543 98.8848 220.621 99.2129 220.777C99.5449 220.934 99.8164 221.152 100.027 221.434C100.238 221.711 100.395 222.039 100.496 222.418C100.598 222.793 100.648 223.203 100.648 223.648V224.135H95.9141V223.25H99.5645V223.168C99.5488 222.887 99.4902 222.613 99.3887 222.348C99.291 222.082 99.1348 221.863 98.9199 221.691C98.7051 221.52 98.4121 221.434 98.041 221.434C97.7949 221.434 97.5684 221.486 97.3613 221.592C97.1543 221.693 96.9766 221.846 96.8281 222.049C96.6797 222.252 96.5645 222.5 96.4824 222.793C96.4004 223.086 96.3594 223.424 96.3594 223.807V224.053C96.3594 224.354 96.4004 224.637 96.4824 224.902C96.5684 225.164 96.6914 225.395 96.8516 225.594C97.0156 225.793 97.2129 225.949 97.4434 226.062C97.6777 226.176 97.9434 226.232 98.2402 226.232C98.623 226.232 98.9473 226.154 99.2129 225.998C99.4785 225.842 99.7109 225.633 99.9102 225.371L100.566 225.893C100.43 226.1 100.256 226.297 100.045 226.484C99.834 226.672 99.5742 226.824 99.2656 226.941C98.9609 227.059 98.5996 227.117 98.1816 227.117ZM102.998 221.656V227H101.914V220.66H102.969L102.998 221.656ZM104.979 220.625L104.973 221.633C104.883 221.613 104.797 221.602 104.715 221.598C104.637 221.59 104.547 221.586 104.445 221.586C104.195 221.586 103.975 221.625 103.783 221.703C103.592 221.781 103.43 221.891 103.297 222.031C103.164 222.172 103.059 222.34 102.98 222.535C102.906 222.727 102.857 222.938 102.834 223.168L102.529 223.344C102.529 222.961 102.566 222.602 102.641 222.266C102.719 221.93 102.838 221.633 102.998 221.375C103.158 221.113 103.361 220.91 103.607 220.766C103.857 220.617 104.154 220.543 104.498 220.543C104.576 220.543 104.666 220.553 104.768 220.572C104.869 220.588 104.939 220.605 104.979 220.625ZM110.562 225.875L112.191 220.66H112.906L112.766 221.697L111.107 227H110.41L110.562 225.875ZM109.467 220.66L110.855 225.934L110.955 227H110.223L108.383 220.66H109.467ZM114.465 225.893L115.789 220.66H116.867L115.027 227H114.301L114.465 225.893ZM113.064 220.66L114.658 225.787L114.84 227H114.148L112.443 221.686L112.303 220.66H113.064ZM121.719 225.916V222.652C121.719 222.402 121.668 222.186 121.566 222.002C121.469 221.814 121.32 221.67 121.121 221.568C120.922 221.467 120.676 221.416 120.383 221.416C120.109 221.416 119.869 221.463 119.662 221.557C119.459 221.65 119.299 221.773 119.182 221.926C119.068 222.078 119.012 222.242 119.012 222.418H117.928C117.928 222.191 117.986 221.967 118.104 221.744C118.221 221.521 118.389 221.32 118.607 221.141C118.83 220.957 119.096 220.812 119.404 220.707C119.717 220.598 120.064 220.543 120.447 220.543C120.908 220.543 121.314 220.621 121.666 220.777C122.021 220.934 122.299 221.17 122.498 221.486C122.701 221.799 122.803 222.191 122.803 222.664V225.617C122.803 225.828 122.82 226.053 122.855 226.291C122.895 226.529 122.951 226.734 123.025 226.906V227H121.895C121.84 226.875 121.797 226.709 121.766 226.502C121.734 226.291 121.719 226.096 121.719 225.916ZM121.906 223.156L121.918 223.918H120.822C120.514 223.918 120.238 223.943 119.996 223.994C119.754 224.041 119.551 224.113 119.387 224.211C119.223 224.309 119.098 224.432 119.012 224.58C118.926 224.725 118.883 224.895 118.883 225.09C118.883 225.289 118.928 225.471 119.018 225.635C119.107 225.799 119.242 225.93 119.422 226.027C119.605 226.121 119.83 226.168 120.096 226.168C120.428 226.168 120.721 226.098 120.975 225.957C121.229 225.816 121.43 225.645 121.578 225.441C121.73 225.238 121.812 225.041 121.824 224.85L122.287 225.371C122.26 225.535 122.186 225.717 122.064 225.916C121.943 226.115 121.781 226.307 121.578 226.49C121.379 226.67 121.141 226.82 120.863 226.941C120.59 227.059 120.281 227.117 119.938 227.117C119.508 227.117 119.131 227.033 118.807 226.865C118.486 226.697 118.236 226.473 118.057 226.191C117.881 225.906 117.793 225.588 117.793 225.236C117.793 224.896 117.859 224.598 117.992 224.34C118.125 224.078 118.316 223.861 118.566 223.689C118.816 223.514 119.117 223.381 119.469 223.291C119.82 223.201 120.213 223.156 120.646 223.156H121.906ZM126.195 226.344L127.959 220.66H129.119L126.576 227.979C126.518 228.135 126.439 228.303 126.342 228.482C126.248 228.666 126.127 228.84 125.979 229.004C125.83 229.168 125.65 229.301 125.439 229.402C125.232 229.508 124.984 229.561 124.695 229.561C124.609 229.561 124.5 229.549 124.367 229.525C124.234 229.502 124.141 229.482 124.086 229.467L124.08 228.588C124.111 228.592 124.16 228.596 124.227 228.6C124.297 228.607 124.346 228.611 124.373 228.611C124.619 228.611 124.828 228.578 125 228.512C125.172 228.449 125.316 228.342 125.434 228.189C125.555 228.041 125.658 227.836 125.744 227.574L126.195 226.344ZM124.9 220.66L126.547 225.582L126.828 226.725L126.049 227.123L123.717 220.66H124.9ZM135.729 220.66V221.492H132.301V220.66H135.729ZM133.461 219.119H134.545V225.43C134.545 225.645 134.578 225.807 134.645 225.916C134.711 226.025 134.797 226.098 134.902 226.133C135.008 226.168 135.121 226.186 135.242 226.186C135.332 226.186 135.426 226.178 135.523 226.162C135.625 226.143 135.701 226.127 135.752 226.115L135.758 227C135.672 227.027 135.559 227.053 135.418 227.076C135.281 227.104 135.115 227.117 134.92 227.117C134.654 227.117 134.41 227.064 134.188 226.959C133.965 226.854 133.787 226.678 133.654 226.432C133.525 226.182 133.461 225.846 133.461 225.424V219.119ZM136.596 223.9V223.766C136.596 223.309 136.662 222.885 136.795 222.494C136.928 222.1 137.119 221.758 137.369 221.469C137.619 221.176 137.922 220.949 138.277 220.789C138.633 220.625 139.031 220.543 139.473 220.543C139.918 220.543 140.318 220.625 140.674 220.789C141.033 220.949 141.338 221.176 141.588 221.469C141.842 221.758 142.035 222.1 142.168 222.494C142.301 222.885 142.367 223.309 142.367 223.766V223.9C142.367 224.357 142.301 224.781 142.168 225.172C142.035 225.562 141.842 225.904 141.588 226.197C141.338 226.486 141.035 226.713 140.68 226.877C140.328 227.037 139.93 227.117 139.484 227.117C139.039 227.117 138.639 227.037 138.283 226.877C137.928 226.713 137.623 226.486 137.369 226.197C137.119 225.904 136.928 225.562 136.795 225.172C136.662 224.781 136.596 224.357 136.596 223.9ZM137.68 223.766V223.9C137.68 224.217 137.717 224.516 137.791 224.797C137.865 225.074 137.977 225.32 138.125 225.535C138.277 225.75 138.467 225.92 138.693 226.045C138.92 226.166 139.184 226.227 139.484 226.227C139.781 226.227 140.041 226.166 140.264 226.045C140.49 225.92 140.678 225.75 140.826 225.535C140.975 225.32 141.086 225.074 141.16 224.797C141.238 224.516 141.277 224.217 141.277 223.9V223.766C141.277 223.453 141.238 223.158 141.16 222.881C141.086 222.6 140.973 222.352 140.82 222.137C140.672 221.918 140.484 221.746 140.258 221.621C140.035 221.496 139.773 221.434 139.473 221.434C139.176 221.434 138.914 221.496 138.688 221.621C138.465 221.746 138.277 221.918 138.125 222.137C137.977 222.352 137.865 222.6 137.791 222.881C137.717 223.158 137.68 223.453 137.68 223.766ZM150.395 225.318C150.395 225.162 150.359 225.018 150.289 224.885C150.223 224.748 150.084 224.625 149.873 224.516C149.666 224.402 149.354 224.305 148.936 224.223C148.584 224.148 148.266 224.061 147.98 223.959C147.699 223.857 147.459 223.734 147.26 223.59C147.064 223.445 146.914 223.275 146.809 223.08C146.703 222.885 146.65 222.656 146.65 222.395C146.65 222.145 146.705 221.908 146.814 221.686C146.928 221.463 147.086 221.266 147.289 221.094C147.496 220.922 147.744 220.787 148.033 220.689C148.322 220.592 148.645 220.543 149 220.543C149.508 220.543 149.941 220.633 150.301 220.812C150.66 220.992 150.936 221.232 151.127 221.533C151.318 221.83 151.414 222.16 151.414 222.523H150.33C150.33 222.348 150.277 222.178 150.172 222.014C150.07 221.846 149.92 221.707 149.721 221.598C149.525 221.488 149.285 221.434 149 221.434C148.699 221.434 148.455 221.48 148.268 221.574C148.084 221.664 147.949 221.779 147.863 221.92C147.781 222.061 147.74 222.209 147.74 222.365C147.74 222.482 147.76 222.588 147.799 222.682C147.842 222.771 147.916 222.855 148.021 222.934C148.127 223.008 148.275 223.078 148.467 223.145C148.658 223.211 148.902 223.277 149.199 223.344C149.719 223.461 150.146 223.602 150.482 223.766C150.818 223.93 151.068 224.131 151.232 224.369C151.396 224.607 151.479 224.896 151.479 225.236C151.479 225.514 151.42 225.768 151.303 225.998C151.189 226.229 151.023 226.428 150.805 226.596C150.59 226.76 150.332 226.889 150.031 226.982C149.734 227.072 149.4 227.117 149.029 227.117C148.471 227.117 147.998 227.018 147.611 226.818C147.225 226.619 146.932 226.361 146.732 226.045C146.533 225.729 146.434 225.395 146.434 225.043H147.523C147.539 225.34 147.625 225.576 147.781 225.752C147.938 225.924 148.129 226.047 148.355 226.121C148.582 226.191 148.807 226.227 149.029 226.227C149.326 226.227 149.574 226.188 149.773 226.109C149.977 226.031 150.131 225.924 150.236 225.787C150.342 225.65 150.395 225.494 150.395 225.318ZM155.439 226.227C155.697 226.227 155.936 226.174 156.154 226.068C156.373 225.963 156.553 225.818 156.693 225.635C156.834 225.447 156.914 225.234 156.934 224.996H157.965C157.945 225.371 157.818 225.721 157.584 226.045C157.354 226.365 157.051 226.625 156.676 226.824C156.301 227.02 155.889 227.117 155.439 227.117C154.963 227.117 154.547 227.033 154.191 226.865C153.84 226.697 153.547 226.467 153.312 226.174C153.082 225.881 152.908 225.545 152.791 225.166C152.678 224.783 152.621 224.379 152.621 223.953V223.707C152.621 223.281 152.678 222.879 152.791 222.5C152.908 222.117 153.082 221.779 153.312 221.486C153.547 221.193 153.84 220.963 154.191 220.795C154.547 220.627 154.963 220.543 155.439 220.543C155.936 220.543 156.369 220.645 156.74 220.848C157.111 221.047 157.402 221.32 157.613 221.668C157.828 222.012 157.945 222.402 157.965 222.84H156.934C156.914 222.578 156.84 222.342 156.711 222.131C156.586 221.92 156.414 221.752 156.195 221.627C155.98 221.498 155.729 221.434 155.439 221.434C155.107 221.434 154.828 221.5 154.602 221.633C154.379 221.762 154.201 221.938 154.068 222.16C153.939 222.379 153.846 222.623 153.787 222.893C153.732 223.158 153.705 223.43 153.705 223.707V223.953C153.705 224.23 153.732 224.504 153.787 224.773C153.842 225.043 153.934 225.287 154.062 225.506C154.195 225.725 154.373 225.9 154.596 226.033C154.822 226.162 155.104 226.227 155.439 226.227ZM160.268 221.656V227H159.184V220.66H160.238L160.268 221.656ZM162.248 220.625L162.242 221.633C162.152 221.613 162.066 221.602 161.984 221.598C161.906 221.59 161.816 221.586 161.715 221.586C161.465 221.586 161.244 221.625 161.053 221.703C160.861 221.781 160.699 221.891 160.566 222.031C160.434 222.172 160.328 222.34 160.25 222.535C160.176 222.727 160.127 222.938 160.104 223.168L159.799 223.344C159.799 222.961 159.836 222.602 159.91 222.266C159.988 221.93 160.107 221.633 160.268 221.375C160.428 221.113 160.631 220.91 160.877 220.766C161.127 220.617 161.424 220.543 161.768 220.543C161.846 220.543 161.936 220.553 162.037 220.572C162.139 220.588 162.209 220.605 162.248 220.625ZM165.764 227.117C165.322 227.117 164.922 227.043 164.562 226.895C164.207 226.742 163.9 226.529 163.643 226.256C163.389 225.982 163.193 225.658 163.057 225.283C162.92 224.908 162.852 224.498 162.852 224.053V223.807C162.852 223.291 162.928 222.832 163.08 222.43C163.232 222.023 163.439 221.68 163.701 221.398C163.963 221.117 164.26 220.904 164.592 220.76C164.924 220.615 165.268 220.543 165.623 220.543C166.076 220.543 166.467 220.621 166.795 220.777C167.127 220.934 167.398 221.152 167.609 221.434C167.82 221.711 167.977 222.039 168.078 222.418C168.18 222.793 168.23 223.203 168.23 223.648V224.135H163.496V223.25H167.146V223.168C167.131 222.887 167.072 222.613 166.971 222.348C166.873 222.082 166.717 221.863 166.502 221.691C166.287 221.52 165.994 221.434 165.623 221.434C165.377 221.434 165.15 221.486 164.943 221.592C164.736 221.693 164.559 221.846 164.41 222.049C164.262 222.252 164.146 222.5 164.064 222.793C163.982 223.086 163.941 223.424 163.941 223.807V224.053C163.941 224.354 163.982 224.637 164.064 224.902C164.15 225.164 164.273 225.395 164.434 225.594C164.598 225.793 164.795 225.949 165.025 226.062C165.26 226.176 165.525 226.232 165.822 226.232C166.205 226.232 166.529 226.154 166.795 225.998C167.061 225.842 167.293 225.633 167.492 225.371L168.148 225.893C168.012 226.1 167.838 226.297 167.627 226.484C167.416 226.672 167.156 226.824 166.848 226.941C166.543 227.059 166.182 227.117 165.764 227.117ZM172.127 227.117C171.686 227.117 171.285 227.043 170.926 226.895C170.57 226.742 170.264 226.529 170.006 226.256C169.752 225.982 169.557 225.658 169.42 225.283C169.283 224.908 169.215 224.498 169.215 224.053V223.807C169.215 223.291 169.291 222.832 169.443 222.43C169.596 222.023 169.803 221.68 170.064 221.398C170.326 221.117 170.623 220.904 170.955 220.76C171.287 220.615 171.631 220.543 171.986 220.543C172.439 220.543 172.83 220.621 173.158 220.777C173.49 220.934 173.762 221.152 173.973 221.434C174.184 221.711 174.34 222.039 174.441 222.418C174.543 222.793 174.594 223.203 174.594 223.648V224.135H169.859V223.25H173.51V223.168C173.494 222.887 173.436 222.613 173.334 222.348C173.236 222.082 173.08 221.863 172.865 221.691C172.65 221.52 172.357 221.434 171.986 221.434C171.74 221.434 171.514 221.486 171.307 221.592C171.1 221.693 170.922 221.846 170.773 222.049C170.625 222.252 170.51 222.5 170.428 222.793C170.346 223.086 170.305 223.424 170.305 223.807V224.053C170.305 224.354 170.346 224.637 170.428 224.902C170.514 225.164 170.637 225.395 170.797 225.594C170.961 225.793 171.158 225.949 171.389 226.062C171.623 226.176 171.889 226.232 172.186 226.232C172.568 226.232 172.893 226.154 173.158 225.998C173.424 225.842 173.656 225.633 173.855 225.371L174.512 225.893C174.375 226.1 174.201 226.297 173.99 226.484C173.779 226.672 173.52 226.824 173.211 226.941C172.906 227.059 172.545 227.117 172.127 227.117ZM176.943 222.014V227H175.859V220.66H176.885L176.943 222.014ZM176.686 223.59L176.234 223.572C176.238 223.139 176.303 222.738 176.428 222.371C176.553 222 176.729 221.678 176.955 221.404C177.182 221.131 177.451 220.92 177.764 220.771C178.08 220.619 178.43 220.543 178.812 220.543C179.125 220.543 179.406 220.586 179.656 220.672C179.906 220.754 180.119 220.887 180.295 221.07C180.475 221.254 180.611 221.492 180.705 221.785C180.799 222.074 180.846 222.428 180.846 222.846V227H179.756V222.834C179.756 222.502 179.707 222.236 179.609 222.037C179.512 221.834 179.369 221.688 179.182 221.598C178.994 221.504 178.764 221.457 178.49 221.457C178.221 221.457 177.975 221.514 177.752 221.627C177.533 221.74 177.344 221.896 177.184 222.096C177.027 222.295 176.904 222.523 176.814 222.781C176.729 223.035 176.686 223.305 176.686 223.59ZM185.182 223.9V223.766C185.182 223.309 185.248 222.885 185.381 222.494C185.514 222.1 185.705 221.758 185.955 221.469C186.205 221.176 186.508 220.949 186.863 220.789C187.219 220.625 187.617 220.543 188.059 220.543C188.504 220.543 188.904 220.625 189.26 220.789C189.619 220.949 189.924 221.176 190.174 221.469C190.428 221.758 190.621 222.1 190.754 222.494C190.887 222.885 190.953 223.309 190.953 223.766V223.9C190.953 224.357 190.887 224.781 190.754 225.172C190.621 225.562 190.428 225.904 190.174 226.197C189.924 226.486 189.621 226.713 189.266 226.877C188.914 227.037 188.516 227.117 188.07 227.117C187.625 227.117 187.225 227.037 186.869 226.877C186.514 226.713 186.209 226.486 185.955 226.197C185.705 225.904 185.514 225.562 185.381 225.172C185.248 224.781 185.182 224.357 185.182 223.9ZM186.266 223.766V223.9C186.266 224.217 186.303 224.516 186.377 224.797C186.451 225.074 186.562 225.32 186.711 225.535C186.863 225.75 187.053 225.92 187.279 226.045C187.506 226.166 187.77 226.227 188.07 226.227C188.367 226.227 188.627 226.166 188.85 226.045C189.076 225.92 189.264 225.75 189.412 225.535C189.561 225.32 189.672 225.074 189.746 224.797C189.824 224.516 189.863 224.217 189.863 223.9V223.766C189.863 223.453 189.824 223.158 189.746 222.881C189.672 222.6 189.559 222.352 189.406 222.137C189.258 221.918 189.07 221.746 188.844 221.621C188.621 221.496 188.359 221.434 188.059 221.434C187.762 221.434 187.5 221.496 187.273 221.621C187.051 221.746 186.863 221.918 186.711 222.137C186.562 222.352 186.451 222.6 186.377 222.881C186.303 223.158 186.266 223.453 186.266 223.766ZM192.307 218H193.396V225.77L193.303 227H192.307V218ZM197.68 223.777V223.9C197.68 224.361 197.625 224.789 197.516 225.184C197.406 225.574 197.246 225.914 197.035 226.203C196.824 226.492 196.566 226.717 196.262 226.877C195.957 227.037 195.607 227.117 195.213 227.117C194.811 227.117 194.457 227.049 194.152 226.912C193.852 226.771 193.598 226.57 193.391 226.309C193.184 226.047 193.018 225.73 192.893 225.359C192.771 224.988 192.688 224.57 192.641 224.105V223.566C192.688 223.098 192.771 222.678 192.893 222.307C193.018 221.936 193.184 221.619 193.391 221.357C193.598 221.092 193.852 220.891 194.152 220.754C194.453 220.613 194.803 220.543 195.201 220.543C195.6 220.543 195.953 220.621 196.262 220.777C196.57 220.93 196.828 221.148 197.035 221.434C197.246 221.719 197.406 222.061 197.516 222.459C197.625 222.854 197.68 223.293 197.68 223.777ZM196.59 223.9V223.777C196.59 223.461 196.561 223.164 196.502 222.887C196.443 222.605 196.35 222.359 196.221 222.148C196.092 221.934 195.922 221.766 195.711 221.645C195.5 221.52 195.24 221.457 194.932 221.457C194.658 221.457 194.42 221.504 194.217 221.598C194.018 221.691 193.848 221.818 193.707 221.979C193.566 222.135 193.451 222.314 193.361 222.518C193.275 222.717 193.211 222.924 193.168 223.139V224.551C193.23 224.824 193.332 225.088 193.473 225.342C193.617 225.592 193.809 225.797 194.047 225.957C194.289 226.117 194.588 226.197 194.943 226.197C195.236 226.197 195.486 226.139 195.693 226.021C195.904 225.9 196.074 225.734 196.203 225.523C196.336 225.312 196.434 225.068 196.496 224.791C196.559 224.514 196.59 224.217 196.59 223.9ZM201.682 227.117C201.24 227.117 200.84 227.043 200.48 226.895C200.125 226.742 199.818 226.529 199.561 226.256C199.307 225.982 199.111 225.658 198.975 225.283C198.838 224.908 198.77 224.498 198.77 224.053V223.807C198.77 223.291 198.846 222.832 198.998 222.43C199.15 222.023 199.357 221.68 199.619 221.398C199.881 221.117 200.178 220.904 200.51 220.76C200.842 220.615 201.186 220.543 201.541 220.543C201.994 220.543 202.385 220.621 202.713 220.777C203.045 220.934 203.316 221.152 203.527 221.434C203.738 221.711 203.895 222.039 203.996 222.418C204.098 222.793 204.148 223.203 204.148 223.648V224.135H199.414V223.25H203.064V223.168C203.049 222.887 202.99 222.613 202.889 222.348C202.791 222.082 202.635 221.863 202.42 221.691C202.205 221.52 201.912 221.434 201.541 221.434C201.295 221.434 201.068 221.486 200.861 221.592C200.654 221.693 200.477 221.846 200.328 222.049C200.18 222.252 200.064 222.5 199.982 222.793C199.9 223.086 199.859 223.424 199.859 223.807V224.053C199.859 224.354 199.9 224.637 199.982 224.902C200.068 225.164 200.191 225.395 200.352 225.594C200.516 225.793 200.713 225.949 200.943 226.062C201.178 226.176 201.443 226.232 201.74 226.232C202.123 226.232 202.447 226.154 202.713 225.998C202.979 225.842 203.211 225.633 203.41 225.371L204.066 225.893C203.93 226.1 203.756 226.297 203.545 226.484C203.334 226.672 203.074 226.824 202.766 226.941C202.461 227.059 202.1 227.117 201.682 227.117ZM209.105 225.318C209.105 225.162 209.07 225.018 209 224.885C208.934 224.748 208.795 224.625 208.584 224.516C208.377 224.402 208.064 224.305 207.646 224.223C207.295 224.148 206.977 224.061 206.691 223.959C206.41 223.857 206.17 223.734 205.971 223.59C205.775 223.445 205.625 223.275 205.52 223.08C205.414 222.885 205.361 222.656 205.361 222.395C205.361 222.145 205.416 221.908 205.525 221.686C205.639 221.463 205.797 221.266 206 221.094C206.207 220.922 206.455 220.787 206.744 220.689C207.033 220.592 207.355 220.543 207.711 220.543C208.219 220.543 208.652 220.633 209.012 220.812C209.371 220.992 209.646 221.232 209.838 221.533C210.029 221.83 210.125 222.16 210.125 222.523H209.041C209.041 222.348 208.988 222.178 208.883 222.014C208.781 221.846 208.631 221.707 208.432 221.598C208.236 221.488 207.996 221.434 207.711 221.434C207.41 221.434 207.166 221.48 206.979 221.574C206.795 221.664 206.66 221.779 206.574 221.92C206.492 222.061 206.451 222.209 206.451 222.365C206.451 222.482 206.471 222.588 206.51 222.682C206.553 222.771 206.627 222.855 206.732 222.934C206.838 223.008 206.986 223.078 207.178 223.145C207.369 223.211 207.613 223.277 207.91 223.344C208.43 223.461 208.857 223.602 209.193 223.766C209.529 223.93 209.779 224.131 209.943 224.369C210.107 224.607 210.189 224.896 210.189 225.236C210.189 225.514 210.131 225.768 210.014 225.998C209.9 226.229 209.734 226.428 209.516 226.596C209.301 226.76 209.043 226.889 208.742 226.982C208.445 227.072 208.111 227.117 207.74 227.117C207.182 227.117 206.709 227.018 206.322 226.818C205.936 226.619 205.643 226.361 205.443 226.045C205.244 225.729 205.145 225.395 205.145 225.043H206.234C206.25 225.34 206.336 225.576 206.492 225.752C206.648 225.924 206.84 226.047 207.066 226.121C207.293 226.191 207.518 226.227 207.74 226.227C208.037 226.227 208.285 226.188 208.484 226.109C208.688 226.031 208.842 225.924 208.947 225.787C209.053 225.65 209.105 225.494 209.105 225.318ZM212.791 220.66V227H211.701V220.66H212.791ZM211.619 218.979C211.619 218.803 211.672 218.654 211.777 218.533C211.887 218.412 212.047 218.352 212.258 218.352C212.465 218.352 212.623 218.412 212.732 218.533C212.846 218.654 212.902 218.803 212.902 218.979C212.902 219.146 212.846 219.291 212.732 219.412C212.623 219.529 212.465 219.588 212.258 219.588C212.047 219.588 211.887 219.529 211.777 219.412C211.672 219.291 211.619 219.146 211.619 218.979ZM217.186 220.66V221.492H213.758V220.66H217.186ZM214.918 219.119H216.002V225.43C216.002 225.645 216.035 225.807 216.102 225.916C216.168 226.025 216.254 226.098 216.359 226.133C216.465 226.168 216.578 226.186 216.699 226.186C216.789 226.186 216.883 226.178 216.98 226.162C217.082 226.143 217.158 226.127 217.209 226.115L217.215 227C217.129 227.027 217.016 227.053 216.875 227.076C216.738 227.104 216.572 227.117 216.377 227.117C216.111 227.117 215.867 227.064 215.645 226.959C215.422 226.854 215.244 226.678 215.111 226.432C214.982 226.182 214.918 225.846 214.918 225.424V219.119ZM220.238 226.344L222.002 220.66H223.162L220.619 227.979C220.561 228.135 220.482 228.303 220.385 228.482C220.291 228.666 220.17 228.84 220.021 229.004C219.873 229.168 219.693 229.301 219.482 229.402C219.275 229.508 219.027 229.561 218.738 229.561C218.652 229.561 218.543 229.549 218.41 229.525C218.277 229.502 218.184 229.482 218.129 229.467L218.123 228.588C218.154 228.592 218.203 228.596 218.27 228.6C218.34 228.607 218.389 228.611 218.416 228.611C218.662 228.611 218.871 228.578 219.043 228.512C219.215 228.449 219.359 228.342 219.477 228.189C219.598 228.041 219.701 227.836 219.787 227.574L220.238 226.344ZM218.943 220.66L220.59 225.582L220.871 226.725L220.092 227.123L217.76 220.66H218.943Z" fill="#0F172A"/>
<path d="M67.8273 210.294C65.0833 210.294 62.5633 209.65 60.2673 208.362C57.9713 207.074 56.1513 205.296 54.8073 203.028C53.4633 200.732 52.7913 198.142 52.7913 195.258C52.7913 192.402 53.4633 189.84 54.8073 187.572C56.1513 185.276 57.9713 183.484 60.2673 182.196C62.5633 180.908 65.0833 180.264 67.8273 180.264C70.5993 180.264 73.1193 180.908 75.3873 182.196C77.6833 183.484 79.4893 185.276 80.8053 187.572C82.1493 189.84 82.8213 192.402 82.8213 195.258C82.8213 198.142 82.1493 200.732 80.8053 203.028C79.4893 205.296 77.6833 207.074 75.3873 208.362C73.0913 209.65 70.5713 210.294 67.8273 210.294ZM67.8273 205.044C69.5913 205.044 71.1453 204.652 72.4893 203.868C73.8333 203.056 74.8833 201.908 75.6393 200.424C76.3953 198.94 76.7733 197.218 76.7733 195.258C76.7733 193.298 76.3953 191.59 75.6393 190.134C74.8833 188.65 73.8333 187.516 72.4893 186.732C71.1453 185.948 69.5913 185.556 67.8273 185.556C66.0633 185.556 64.4953 185.948 63.1233 186.732C61.7793 187.516 60.7293 188.65 59.9733 190.134C59.2173 191.59 58.8393 193.298 58.8393 195.258C58.8393 197.218 59.2173 198.94 59.9733 200.424C60.7293 201.908 61.7793 203.056 63.1233 203.868C64.4953 204.652 66.0633 205.044 67.8273 205.044ZM103.828 194.964C105.48 195.272 106.838 196.098 107.902 197.442C108.966 198.786 109.498 200.326 109.498 202.062C109.498 203.63 109.106 205.016 108.322 206.22C107.566 207.396 106.46 208.32 105.004 208.992C103.548 209.664 101.826 210 99.8379 210H87.1959V180.684H99.2919C101.28 180.684 102.988 181.006 104.416 181.65C105.872 182.294 106.964 183.19 107.692 184.338C108.448 185.486 108.826 186.788 108.826 188.244C108.826 189.952 108.364 191.38 107.44 192.528C106.544 193.676 105.34 194.488 103.828 194.964ZM93.0759 192.78H98.4519C99.8519 192.78 100.93 192.472 101.686 191.856C102.442 191.212 102.82 190.302 102.82 189.126C102.82 187.95 102.442 187.04 101.686 186.396C100.93 185.752 99.8519 185.43 98.4519 185.43H93.0759V192.78ZM98.9979 205.212C100.426 205.212 101.532 204.876 102.316 204.204C103.128 203.532 103.534 202.58 103.534 201.348C103.534 200.088 103.114 199.108 102.274 198.408C101.434 197.68 100.3 197.316 98.8719 197.316H93.0759V205.212H98.9979ZM120.064 185.43V192.78H129.934V197.442H120.064V205.212H131.194V210H114.184V180.642H131.194V185.43H120.064ZM151.658 210L145.19 198.576H142.418V210H136.538V180.684H147.542C149.81 180.684 151.742 181.09 153.338 181.902C154.934 182.686 156.124 183.764 156.908 185.136C157.72 186.48 158.126 187.992 158.126 189.672C158.126 191.604 157.566 193.354 156.446 194.922C155.326 196.462 153.66 197.526 151.448 198.114L158.462 210H151.658ZM142.418 194.166H147.332C148.928 194.166 150.118 193.788 150.902 193.032C151.686 192.248 152.078 191.17 152.078 189.798C152.078 188.454 151.686 187.418 150.902 186.69C150.118 185.934 148.928 185.556 147.332 185.556H142.418V194.166ZM169.324 180.684V210H163.444V180.684H169.324ZM185.255 210.294C183.211 210.294 181.363 209.944 179.711 209.244C178.087 208.544 176.799 207.536 175.847 206.22C174.895 204.904 174.405 203.35 174.377 201.558H180.677C180.761 202.762 181.181 203.714 181.937 204.414C182.721 205.114 183.785 205.464 185.129 205.464C186.501 205.464 187.579 205.142 188.363 204.498C189.147 203.826 189.539 202.958 189.539 201.894C189.539 201.026 189.273 200.312 188.741 199.752C188.209 199.192 187.537 198.758 186.725 198.45C185.941 198.114 184.849 197.75 183.449 197.358C181.545 196.798 179.991 196.252 178.787 195.72C177.611 195.16 176.589 194.334 175.721 193.242C174.881 192.122 174.461 190.638 174.461 188.79C174.461 187.054 174.895 185.542 175.763 184.254C176.631 182.966 177.849 181.986 179.417 181.314C180.985 180.614 182.777 180.264 184.793 180.264C187.817 180.264 190.267 181.006 192.143 182.49C194.047 183.946 195.097 185.99 195.293 188.622H188.825C188.769 187.614 188.335 186.788 187.523 186.144C186.739 185.472 185.689 185.136 184.373 185.136C183.225 185.136 182.301 185.43 181.601 186.018C180.929 186.606 180.593 187.46 180.593 188.58C180.593 189.364 180.845 190.022 181.349 190.554C181.881 191.058 182.525 191.478 183.281 191.814C184.065 192.122 185.157 192.486 186.557 192.906C188.461 193.466 190.015 194.026 191.219 194.586C192.423 195.146 193.459 195.986 194.327 197.106C195.195 198.226 195.629 199.696 195.629 201.516C195.629 203.084 195.223 204.54 194.411 205.884C193.599 207.228 192.409 208.306 190.841 209.118C189.273 209.902 187.411 210.294 185.255 210.294ZM217.275 210L206.607 196.938V210H200.727V180.684H206.607V193.83L217.275 180.684H224.373L212.277 195.216L224.709 210H217.275Z" fill="#FF7A16"/>
</svg>
