<svg width="384" height="226" viewBox="0 0 384 226" fill="none" xmlns="http://www.w3.org/2000/svg">
<g clip-path="url(#clip0_1_2)">
<path d="M95.5 167.297C125.763 167.297 150.297 142.763 150.297 112.5C150.297 82.2365 125.763 57.7031 95.5 57.7031C65.2365 57.7031 40.7031 82.2365 40.7031 112.5C40.7031 142.763 65.2365 167.297 95.5 167.297Z" stroke="#FF7A16" stroke-width="10"/>
<path opacity="0.15" d="M95.5 151.641C117.117 151.641 134.641 134.117 134.641 112.5C134.641 90.8832 117.117 73.3594 95.5 73.3594C73.8832 73.3594 56.3594 90.8832 56.3594 112.5C56.3594 134.117 73.8832 151.641 95.5 151.641Z" stroke="#FF7A16" stroke-width="10"/>
<path d="M95.5 91.625V133.375M74.625 112.5H116.375" stroke="#0F172A" stroke-width="10" stroke-linecap="round" stroke-linejoin="round"/>
<path d="M173.564 139.916V136.652C173.564 136.402 173.514 136.186 173.412 136.002C173.314 135.814 173.166 135.67 172.967 135.568C172.768 135.467 172.521 135.416 172.229 135.416C171.955 135.416 171.715 135.463 171.508 135.557C171.305 135.65 171.145 135.773 171.027 135.926C170.914 136.078 170.857 136.242 170.857 136.418H169.773C169.773 136.191 169.832 135.967 169.949 135.744C170.066 135.521 170.234 135.32 170.453 135.141C170.676 134.957 170.941 134.812 171.25 134.707C171.562 134.598 171.91 134.543 172.293 134.543C172.754 134.543 173.16 134.621 173.512 134.777C173.867 134.934 174.145 135.17 174.344 135.486C174.547 135.799 174.648 136.191 174.648 136.664V139.617C174.648 139.828 174.666 140.053 174.701 140.291C174.74 140.529 174.797 140.734 174.871 140.906V141H173.74C173.686 140.875 173.643 140.709 173.611 140.502C173.58 140.291 173.564 140.096 173.564 139.916ZM173.752 137.156L173.764 137.918H172.668C172.359 137.918 172.084 137.943 171.842 137.994C171.6 138.041 171.396 138.113 171.232 138.211C171.068 138.309 170.943 138.432 170.857 138.58C170.771 138.725 170.729 138.895 170.729 139.09C170.729 139.289 170.773 139.471 170.863 139.635C170.953 139.799 171.088 139.93 171.268 140.027C171.451 140.121 171.676 140.168 171.941 140.168C172.273 140.168 172.566 140.098 172.82 139.957C173.074 139.816 173.275 139.645 173.424 139.441C173.576 139.238 173.658 139.041 173.67 138.85L174.133 139.371C174.105 139.535 174.031 139.717 173.91 139.916C173.789 140.115 173.627 140.307 173.424 140.49C173.225 140.67 172.986 140.82 172.709 140.941C172.436 141.059 172.127 141.117 171.783 141.117C171.354 141.117 170.977 141.033 170.652 140.865C170.332 140.697 170.082 140.473 169.902 140.191C169.727 139.906 169.639 139.588 169.639 139.236C169.639 138.896 169.705 138.598 169.838 138.34C169.971 138.078 170.162 137.861 170.412 137.689C170.662 137.514 170.963 137.381 171.314 137.291C171.666 137.201 172.059 137.156 172.492 137.156H173.752ZM183.021 139.318C183.021 139.162 182.986 139.018 182.916 138.885C182.85 138.748 182.711 138.625 182.5 138.516C182.293 138.402 181.98 138.305 181.562 138.223C181.211 138.148 180.893 138.061 180.607 137.959C180.326 137.857 180.086 137.734 179.887 137.59C179.691 137.445 179.541 137.275 179.436 137.08C179.33 136.885 179.277 136.656 179.277 136.395C179.277 136.145 179.332 135.908 179.441 135.686C179.555 135.463 179.713 135.266 179.916 135.094C180.123 134.922 180.371 134.787 180.66 134.689C180.949 134.592 181.271 134.543 181.627 134.543C182.135 134.543 182.568 134.633 182.928 134.812C183.287 134.992 183.562 135.232 183.754 135.533C183.945 135.83 184.041 136.16 184.041 136.523H182.957C182.957 136.348 182.904 136.178 182.799 136.014C182.697 135.846 182.547 135.707 182.348 135.598C182.152 135.488 181.912 135.434 181.627 135.434C181.326 135.434 181.082 135.48 180.895 135.574C180.711 135.664 180.576 135.779 180.49 135.92C180.408 136.061 180.367 136.209 180.367 136.365C180.367 136.482 180.387 136.588 180.426 136.682C180.469 136.771 180.543 136.855 180.648 136.934C180.754 137.008 180.902 137.078 181.094 137.145C181.285 137.211 181.529 137.277 181.826 137.344C182.346 137.461 182.773 137.602 183.109 137.766C183.445 137.93 183.695 138.131 183.859 138.369C184.023 138.607 184.105 138.896 184.105 139.236C184.105 139.514 184.047 139.768 183.93 139.998C183.816 140.229 183.65 140.428 183.432 140.596C183.217 140.76 182.959 140.889 182.658 140.982C182.361 141.072 182.027 141.117 181.656 141.117C181.098 141.117 180.625 141.018 180.238 140.818C179.852 140.619 179.559 140.361 179.359 140.045C179.16 139.729 179.061 139.395 179.061 139.043H180.15C180.166 139.34 180.252 139.576 180.408 139.752C180.564 139.924 180.756 140.047 180.982 140.121C181.209 140.191 181.434 140.227 181.656 140.227C181.953 140.227 182.201 140.188 182.4 140.109C182.604 140.031 182.758 139.924 182.863 139.787C182.969 139.65 183.021 139.494 183.021 139.318ZM186.607 135.92V141H185.518V134.66H186.549L186.607 135.92ZM186.385 137.59L185.881 137.572C185.885 137.139 185.941 136.738 186.051 136.371C186.16 136 186.322 135.678 186.537 135.404C186.752 135.131 187.02 134.92 187.34 134.771C187.66 134.619 188.031 134.543 188.453 134.543C188.75 134.543 189.023 134.586 189.273 134.672C189.523 134.754 189.74 134.885 189.924 135.064C190.107 135.244 190.25 135.475 190.352 135.756C190.453 136.037 190.504 136.377 190.504 136.775V141H189.42V136.828C189.42 136.496 189.363 136.23 189.25 136.031C189.141 135.832 188.984 135.688 188.781 135.598C188.578 135.504 188.34 135.457 188.066 135.457C187.746 135.457 187.479 135.514 187.264 135.627C187.049 135.74 186.877 135.896 186.748 136.096C186.619 136.295 186.525 136.523 186.467 136.781C186.412 137.035 186.385 137.305 186.385 137.59ZM190.492 136.992L189.766 137.215C189.77 136.867 189.826 136.533 189.936 136.213C190.049 135.893 190.211 135.607 190.422 135.357C190.637 135.107 190.9 134.91 191.213 134.766C191.525 134.617 191.883 134.543 192.285 134.543C192.625 134.543 192.926 134.588 193.188 134.678C193.453 134.768 193.676 134.906 193.855 135.094C194.039 135.277 194.178 135.514 194.271 135.803C194.365 136.092 194.412 136.436 194.412 136.834V141H193.322V136.822C193.322 136.467 193.266 136.191 193.152 135.996C193.043 135.797 192.887 135.658 192.684 135.58C192.484 135.498 192.246 135.457 191.969 135.457C191.73 135.457 191.52 135.498 191.336 135.58C191.152 135.662 190.998 135.775 190.873 135.92C190.748 136.061 190.652 136.223 190.586 136.406C190.523 136.59 190.492 136.785 190.492 136.992ZM199.791 139.916V136.652C199.791 136.402 199.74 136.186 199.639 136.002C199.541 135.814 199.393 135.67 199.193 135.568C198.994 135.467 198.748 135.416 198.455 135.416C198.182 135.416 197.941 135.463 197.734 135.557C197.531 135.65 197.371 135.773 197.254 135.926C197.141 136.078 197.084 136.242 197.084 136.418H196C196 136.191 196.059 135.967 196.176 135.744C196.293 135.521 196.461 135.32 196.68 135.141C196.902 134.957 197.168 134.812 197.477 134.707C197.789 134.598 198.137 134.543 198.52 134.543C198.98 134.543 199.387 134.621 199.738 134.777C200.094 134.934 200.371 135.17 200.57 135.486C200.773 135.799 200.875 136.191 200.875 136.664V139.617C200.875 139.828 200.893 140.053 200.928 140.291C200.967 140.529 201.023 140.734 201.098 140.906V141H199.967C199.912 140.875 199.869 140.709 199.838 140.502C199.807 140.291 199.791 140.096 199.791 139.916ZM199.979 137.156L199.99 137.918H198.895C198.586 137.918 198.311 137.943 198.068 137.994C197.826 138.041 197.623 138.113 197.459 138.211C197.295 138.309 197.17 138.432 197.084 138.58C196.998 138.725 196.955 138.895 196.955 139.09C196.955 139.289 197 139.471 197.09 139.635C197.18 139.799 197.314 139.93 197.494 140.027C197.678 140.121 197.902 140.168 198.168 140.168C198.5 140.168 198.793 140.098 199.047 139.957C199.301 139.816 199.502 139.645 199.65 139.441C199.803 139.238 199.885 139.041 199.896 138.85L200.359 139.371C200.332 139.535 200.258 139.717 200.137 139.916C200.016 140.115 199.854 140.307 199.65 140.49C199.451 140.67 199.213 140.82 198.936 140.941C198.662 141.059 198.354 141.117 198.01 141.117C197.58 141.117 197.203 141.033 196.879 140.865C196.559 140.697 196.309 140.473 196.129 140.191C195.953 139.906 195.865 139.588 195.865 139.236C195.865 138.896 195.932 138.598 196.064 138.34C196.197 138.078 196.389 137.861 196.639 137.689C196.889 137.514 197.189 137.381 197.541 137.291C197.893 137.201 198.285 137.156 198.719 137.156H199.979ZM203.664 135.656V141H202.58V134.66H203.635L203.664 135.656ZM205.645 134.625L205.639 135.633C205.549 135.613 205.463 135.602 205.381 135.598C205.303 135.59 205.213 135.586 205.111 135.586C204.861 135.586 204.641 135.625 204.449 135.703C204.258 135.781 204.096 135.891 203.963 136.031C203.83 136.172 203.725 136.34 203.646 136.535C203.572 136.727 203.523 136.938 203.5 137.168L203.195 137.344C203.195 136.961 203.232 136.602 203.307 136.266C203.385 135.93 203.504 135.633 203.664 135.375C203.824 135.113 204.027 134.91 204.273 134.766C204.523 134.617 204.82 134.543 205.164 134.543C205.242 134.543 205.332 134.553 205.434 134.572C205.535 134.588 205.605 134.605 205.645 134.625ZM209.594 134.66V135.492H206.166V134.66H209.594ZM207.326 133.119H208.41V139.43C208.41 139.645 208.443 139.807 208.51 139.916C208.576 140.025 208.662 140.098 208.768 140.133C208.873 140.168 208.986 140.186 209.107 140.186C209.197 140.186 209.291 140.178 209.389 140.162C209.49 140.143 209.566 140.127 209.617 140.115L209.623 141C209.537 141.027 209.424 141.053 209.283 141.076C209.146 141.104 208.98 141.117 208.785 141.117C208.52 141.117 208.275 141.064 208.053 140.959C207.83 140.854 207.652 140.678 207.52 140.432C207.391 140.182 207.326 139.846 207.326 139.424V133.119ZM213.496 141.117C213.055 141.117 212.654 141.043 212.295 140.895C211.939 140.742 211.633 140.529 211.375 140.256C211.121 139.982 210.926 139.658 210.789 139.283C210.652 138.908 210.584 138.498 210.584 138.053V137.807C210.584 137.291 210.66 136.832 210.812 136.43C210.965 136.023 211.172 135.68 211.434 135.398C211.695 135.117 211.992 134.904 212.324 134.76C212.656 134.615 213 134.543 213.355 134.543C213.809 134.543 214.199 134.621 214.527 134.777C214.859 134.934 215.131 135.152 215.342 135.434C215.553 135.711 215.709 136.039 215.811 136.418C215.912 136.793 215.963 137.203 215.963 137.648V138.135H211.229V137.25H214.879V137.168C214.863 136.887 214.805 136.613 214.703 136.348C214.605 136.082 214.449 135.863 214.234 135.691C214.02 135.52 213.727 135.434 213.355 135.434C213.109 135.434 212.883 135.486 212.676 135.592C212.469 135.693 212.291 135.846 212.143 136.049C211.994 136.252 211.879 136.5 211.797 136.793C211.715 137.086 211.674 137.424 211.674 137.807V138.053C211.674 138.354 211.715 138.637 211.797 138.902C211.883 139.164 212.006 139.395 212.166 139.594C212.33 139.793 212.527 139.949 212.758 140.062C212.992 140.176 213.258 140.232 213.555 140.232C213.938 140.232 214.262 140.154 214.527 139.998C214.793 139.842 215.025 139.633 215.225 139.371L215.881 139.893C215.744 140.1 215.57 140.297 215.359 140.484C215.148 140.672 214.889 140.824 214.58 140.941C214.275 141.059 213.914 141.117 213.496 141.117ZM218.312 135.656V141H217.229V134.66H218.283L218.312 135.656ZM220.293 134.625L220.287 135.633C220.197 135.613 220.111 135.602 220.029 135.598C219.951 135.59 219.861 135.586 219.76 135.586C219.51 135.586 219.289 135.625 219.098 135.703C218.906 135.781 218.744 135.891 218.611 136.031C218.479 136.172 218.373 136.34 218.295 136.535C218.221 136.727 218.172 136.938 218.148 137.168L217.844 137.344C217.844 136.961 217.881 136.602 217.955 136.266C218.033 135.93 218.152 135.633 218.312 135.375C218.473 135.113 218.676 134.91 218.922 134.766C219.172 134.617 219.469 134.543 219.812 134.543C219.891 134.543 219.98 134.553 220.082 134.572C220.184 134.588 220.254 134.605 220.293 134.625ZM225.877 139.875L227.506 134.66H228.221L228.08 135.697L226.422 141H225.725L225.877 139.875ZM224.781 134.66L226.17 139.934L226.27 141H225.537L223.697 134.66H224.781ZM229.779 139.893L231.104 134.66H232.182L230.342 141H229.615L229.779 139.893ZM228.379 134.66L229.973 139.787L230.154 141H229.463L227.758 135.686L227.617 134.66H228.379ZM237.033 139.916V136.652C237.033 136.402 236.982 136.186 236.881 136.002C236.783 135.814 236.635 135.67 236.436 135.568C236.236 135.467 235.99 135.416 235.697 135.416C235.424 135.416 235.184 135.463 234.977 135.557C234.773 135.65 234.613 135.773 234.496 135.926C234.383 136.078 234.326 136.242 234.326 136.418H233.242C233.242 136.191 233.301 135.967 233.418 135.744C233.535 135.521 233.703 135.32 233.922 135.141C234.145 134.957 234.41 134.812 234.719 134.707C235.031 134.598 235.379 134.543 235.762 134.543C236.223 134.543 236.629 134.621 236.98 134.777C237.336 134.934 237.613 135.17 237.812 135.486C238.016 135.799 238.117 136.191 238.117 136.664V139.617C238.117 139.828 238.135 140.053 238.17 140.291C238.209 140.529 238.266 140.734 238.34 140.906V141H237.209C237.154 140.875 237.111 140.709 237.08 140.502C237.049 140.291 237.033 140.096 237.033 139.916ZM237.221 137.156L237.232 137.918H236.137C235.828 137.918 235.553 137.943 235.311 137.994C235.068 138.041 234.865 138.113 234.701 138.211C234.537 138.309 234.412 138.432 234.326 138.58C234.24 138.725 234.197 138.895 234.197 139.09C234.197 139.289 234.242 139.471 234.332 139.635C234.422 139.799 234.557 139.93 234.736 140.027C234.92 140.121 235.145 140.168 235.41 140.168C235.742 140.168 236.035 140.098 236.289 139.957C236.543 139.816 236.744 139.645 236.893 139.441C237.045 139.238 237.127 139.041 237.139 138.85L237.602 139.371C237.574 139.535 237.5 139.717 237.379 139.916C237.258 140.115 237.096 140.307 236.893 140.49C236.693 140.67 236.455 140.82 236.178 140.941C235.904 141.059 235.596 141.117 235.252 141.117C234.822 141.117 234.445 141.033 234.121 140.865C233.801 140.697 233.551 140.473 233.371 140.191C233.195 139.906 233.107 139.588 233.107 139.236C233.107 138.896 233.174 138.598 233.307 138.34C233.439 138.078 233.631 137.861 233.881 137.689C234.131 137.514 234.432 137.381 234.783 137.291C235.135 137.201 235.527 137.156 235.961 137.156H237.221ZM241.51 140.344L243.273 134.66H244.434L241.891 141.979C241.832 142.135 241.754 142.303 241.656 142.482C241.562 142.666 241.441 142.84 241.293 143.004C241.145 143.168 240.965 143.301 240.754 143.402C240.547 143.508 240.299 143.561 240.01 143.561C239.924 143.561 239.814 143.549 239.682 143.525C239.549 143.502 239.455 143.482 239.4 143.467L239.395 142.588C239.426 142.592 239.475 142.596 239.541 142.6C239.611 142.607 239.66 142.611 239.688 142.611C239.934 142.611 240.143 142.578 240.314 142.512C240.486 142.449 240.631 142.342 240.748 142.189C240.869 142.041 240.973 141.836 241.059 141.574L241.51 140.344ZM240.215 134.66L241.861 139.582L242.143 140.725L241.363 141.123L239.031 134.66H240.215ZM251.043 134.66V135.492H247.615V134.66H251.043ZM248.775 133.119H249.859V139.43C249.859 139.645 249.893 139.807 249.959 139.916C250.025 140.025 250.111 140.098 250.217 140.133C250.322 140.168 250.436 140.186 250.557 140.186C250.646 140.186 250.74 140.178 250.838 140.162C250.939 140.143 251.016 140.127 251.066 140.115L251.072 141C250.986 141.027 250.873 141.053 250.732 141.076C250.596 141.104 250.43 141.117 250.234 141.117C249.969 141.117 249.725 141.064 249.502 140.959C249.279 140.854 249.102 140.678 248.969 140.432C248.84 140.182 248.775 139.846 248.775 139.424V133.119ZM251.91 137.9V137.766C251.91 137.309 251.977 136.885 252.109 136.494C252.242 136.1 252.434 135.758 252.684 135.469C252.934 135.176 253.236 134.949 253.592 134.789C253.947 134.625 254.346 134.543 254.787 134.543C255.232 134.543 255.633 134.625 255.988 134.789C256.348 134.949 256.652 135.176 256.902 135.469C257.156 135.758 257.35 136.1 257.482 136.494C257.615 136.885 257.682 137.309 257.682 137.766V137.9C257.682 138.357 257.615 138.781 257.482 139.172C257.35 139.562 257.156 139.904 256.902 140.197C256.652 140.486 256.35 140.713 255.994 140.877C255.643 141.037 255.244 141.117 254.799 141.117C254.354 141.117 253.953 141.037 253.598 140.877C253.242 140.713 252.938 140.486 252.684 140.197C252.434 139.904 252.242 139.562 252.109 139.172C251.977 138.781 251.91 138.357 251.91 137.9ZM252.994 137.766V137.9C252.994 138.217 253.031 138.516 253.105 138.797C253.18 139.074 253.291 139.32 253.439 139.535C253.592 139.75 253.781 139.92 254.008 140.045C254.234 140.166 254.498 140.227 254.799 140.227C255.096 140.227 255.355 140.166 255.578 140.045C255.805 139.92 255.992 139.75 256.141 139.535C256.289 139.32 256.4 139.074 256.475 138.797C256.553 138.516 256.592 138.217 256.592 137.9V137.766C256.592 137.453 256.553 137.158 256.475 136.881C256.4 136.6 256.287 136.352 256.135 136.137C255.986 135.918 255.799 135.746 255.572 135.621C255.35 135.496 255.088 135.434 254.787 135.434C254.49 135.434 254.229 135.496 254.002 135.621C253.779 135.746 253.592 135.918 253.439 136.137C253.291 136.352 253.18 136.6 253.105 136.881C253.031 137.158 252.994 137.453 252.994 137.766ZM265.709 139.318C265.709 139.162 265.674 139.018 265.604 138.885C265.537 138.748 265.398 138.625 265.188 138.516C264.98 138.402 264.668 138.305 264.25 138.223C263.898 138.148 263.58 138.061 263.295 137.959C263.014 137.857 262.773 137.734 262.574 137.59C262.379 137.445 262.229 137.275 262.123 137.08C262.018 136.885 261.965 136.656 261.965 136.395C261.965 136.145 262.02 135.908 262.129 135.686C262.242 135.463 262.4 135.266 262.604 135.094C262.811 134.922 263.059 134.787 263.348 134.689C263.637 134.592 263.959 134.543 264.314 134.543C264.822 134.543 265.256 134.633 265.615 134.812C265.975 134.992 266.25 135.232 266.441 135.533C266.633 135.83 266.729 136.16 266.729 136.523H265.645C265.645 136.348 265.592 136.178 265.486 136.014C265.385 135.846 265.234 135.707 265.035 135.598C264.84 135.488 264.6 135.434 264.314 135.434C264.014 135.434 263.77 135.48 263.582 135.574C263.398 135.664 263.264 135.779 263.178 135.92C263.096 136.061 263.055 136.209 263.055 136.365C263.055 136.482 263.074 136.588 263.113 136.682C263.156 136.771 263.23 136.855 263.336 136.934C263.441 137.008 263.59 137.078 263.781 137.145C263.973 137.211 264.217 137.277 264.514 137.344C265.033 137.461 265.461 137.602 265.797 137.766C266.133 137.93 266.383 138.131 266.547 138.369C266.711 138.607 266.793 138.896 266.793 139.236C266.793 139.514 266.734 139.768 266.617 139.998C266.504 140.229 266.338 140.428 266.119 140.596C265.904 140.76 265.646 140.889 265.346 140.982C265.049 141.072 264.715 141.117 264.344 141.117C263.785 141.117 263.312 141.018 262.926 140.818C262.539 140.619 262.246 140.361 262.047 140.045C261.848 139.729 261.748 139.395 261.748 139.043H262.838C262.854 139.34 262.939 139.576 263.096 139.752C263.252 139.924 263.443 140.047 263.67 140.121C263.896 140.191 264.121 140.227 264.344 140.227C264.641 140.227 264.889 140.188 265.088 140.109C265.291 140.031 265.445 139.924 265.551 139.787C265.656 139.65 265.709 139.494 265.709 139.318ZM270.754 140.227C271.012 140.227 271.25 140.174 271.469 140.068C271.688 139.963 271.867 139.818 272.008 139.635C272.148 139.447 272.229 139.234 272.248 138.996H273.279C273.26 139.371 273.133 139.721 272.898 140.045C272.668 140.365 272.365 140.625 271.99 140.824C271.615 141.02 271.203 141.117 270.754 141.117C270.277 141.117 269.861 141.033 269.506 140.865C269.154 140.697 268.861 140.467 268.627 140.174C268.396 139.881 268.223 139.545 268.105 139.166C267.992 138.783 267.936 138.379 267.936 137.953V137.707C267.936 137.281 267.992 136.879 268.105 136.5C268.223 136.117 268.396 135.779 268.627 135.486C268.861 135.193 269.154 134.963 269.506 134.795C269.861 134.627 270.277 134.543 270.754 134.543C271.25 134.543 271.684 134.645 272.055 134.848C272.426 135.047 272.717 135.32 272.928 135.668C273.143 136.012 273.26 136.402 273.279 136.84H272.248C272.229 136.578 272.154 136.342 272.025 136.131C271.9 135.92 271.729 135.752 271.51 135.627C271.295 135.498 271.043 135.434 270.754 135.434C270.422 135.434 270.143 135.5 269.916 135.633C269.693 135.762 269.516 135.938 269.383 136.16C269.254 136.379 269.16 136.623 269.102 136.893C269.047 137.158 269.02 137.43 269.02 137.707V137.953C269.02 138.23 269.047 138.504 269.102 138.773C269.156 139.043 269.248 139.287 269.377 139.506C269.51 139.725 269.688 139.9 269.91 140.033C270.137 140.162 270.418 140.227 270.754 140.227ZM275.582 135.656V141H274.498V134.66H275.553L275.582 135.656ZM277.562 134.625L277.557 135.633C277.467 135.613 277.381 135.602 277.299 135.598C277.221 135.59 277.131 135.586 277.029 135.586C276.779 135.586 276.559 135.625 276.367 135.703C276.176 135.781 276.014 135.891 275.881 136.031C275.748 136.172 275.643 136.34 275.564 136.535C275.49 136.727 275.441 136.938 275.418 137.168L275.113 137.344C275.113 136.961 275.15 136.602 275.225 136.266C275.303 135.93 275.422 135.633 275.582 135.375C275.742 135.113 275.945 134.91 276.191 134.766C276.441 134.617 276.738 134.543 277.082 134.543C277.16 134.543 277.25 134.553 277.352 134.572C277.453 134.588 277.523 134.605 277.562 134.625ZM281.078 141.117C280.637 141.117 280.236 141.043 279.877 140.895C279.521 140.742 279.215 140.529 278.957 140.256C278.703 139.982 278.508 139.658 278.371 139.283C278.234 138.908 278.166 138.498 278.166 138.053V137.807C278.166 137.291 278.242 136.832 278.395 136.43C278.547 136.023 278.754 135.68 279.016 135.398C279.277 135.117 279.574 134.904 279.906 134.76C280.238 134.615 280.582 134.543 280.938 134.543C281.391 134.543 281.781 134.621 282.109 134.777C282.441 134.934 282.713 135.152 282.924 135.434C283.135 135.711 283.291 136.039 283.393 136.418C283.494 136.793 283.545 137.203 283.545 137.648V138.135H278.811V137.25H282.461V137.168C282.445 136.887 282.387 136.613 282.285 136.348C282.188 136.082 282.031 135.863 281.816 135.691C281.602 135.52 281.309 135.434 280.938 135.434C280.691 135.434 280.465 135.486 280.258 135.592C280.051 135.693 279.873 135.846 279.725 136.049C279.576 136.252 279.461 136.5 279.379 136.793C279.297 137.086 279.256 137.424 279.256 137.807V138.053C279.256 138.354 279.297 138.637 279.379 138.902C279.465 139.164 279.588 139.395 279.748 139.594C279.912 139.793 280.109 139.949 280.34 140.062C280.574 140.176 280.84 140.232 281.137 140.232C281.52 140.232 281.844 140.154 282.109 139.998C282.375 139.842 282.607 139.633 282.807 139.371L283.463 139.893C283.326 140.1 283.152 140.297 282.941 140.484C282.73 140.672 282.471 140.824 282.162 140.941C281.857 141.059 281.496 141.117 281.078 141.117ZM287.441 141.117C287 141.117 286.6 141.043 286.24 140.895C285.885 140.742 285.578 140.529 285.32 140.256C285.066 139.982 284.871 139.658 284.734 139.283C284.598 138.908 284.529 138.498 284.529 138.053V137.807C284.529 137.291 284.605 136.832 284.758 136.43C284.91 136.023 285.117 135.68 285.379 135.398C285.641 135.117 285.938 134.904 286.27 134.76C286.602 134.615 286.945 134.543 287.301 134.543C287.754 134.543 288.145 134.621 288.473 134.777C288.805 134.934 289.076 135.152 289.287 135.434C289.498 135.711 289.654 136.039 289.756 136.418C289.857 136.793 289.908 137.203 289.908 137.648V138.135H285.174V137.25H288.824V137.168C288.809 136.887 288.75 136.613 288.648 136.348C288.551 136.082 288.395 135.863 288.18 135.691C287.965 135.52 287.672 135.434 287.301 135.434C287.055 135.434 286.828 135.486 286.621 135.592C286.414 135.693 286.236 135.846 286.088 136.049C285.939 136.252 285.824 136.5 285.742 136.793C285.66 137.086 285.619 137.424 285.619 137.807V138.053C285.619 138.354 285.66 138.637 285.742 138.902C285.828 139.164 285.951 139.395 286.111 139.594C286.275 139.793 286.473 139.949 286.703 140.062C286.938 140.176 287.203 140.232 287.5 140.232C287.883 140.232 288.207 140.154 288.473 139.998C288.738 139.842 288.971 139.633 289.17 139.371L289.826 139.893C289.689 140.1 289.516 140.297 289.305 140.484C289.094 140.672 288.834 140.824 288.525 140.941C288.221 141.059 287.859 141.117 287.441 141.117ZM292.258 136.014V141H291.174V134.66H292.199L292.258 136.014ZM292 137.59L291.549 137.572C291.553 137.139 291.617 136.738 291.742 136.371C291.867 136 292.043 135.678 292.27 135.404C292.496 135.131 292.766 134.92 293.078 134.771C293.395 134.619 293.744 134.543 294.127 134.543C294.439 134.543 294.721 134.586 294.971 134.672C295.221 134.754 295.434 134.887 295.609 135.07C295.789 135.254 295.926 135.492 296.02 135.785C296.113 136.074 296.16 136.428 296.16 136.846V141H295.07V136.834C295.07 136.502 295.021 136.236 294.924 136.037C294.826 135.834 294.684 135.688 294.496 135.598C294.309 135.504 294.078 135.457 293.805 135.457C293.535 135.457 293.289 135.514 293.066 135.627C292.848 135.74 292.658 135.896 292.498 136.096C292.342 136.295 292.219 136.523 292.129 136.781C292.043 137.035 292 137.305 292 137.59ZM300.496 137.9V137.766C300.496 137.309 300.562 136.885 300.695 136.494C300.828 136.1 301.02 135.758 301.27 135.469C301.52 135.176 301.822 134.949 302.178 134.789C302.533 134.625 302.932 134.543 303.373 134.543C303.818 134.543 304.219 134.625 304.574 134.789C304.934 134.949 305.238 135.176 305.488 135.469C305.742 135.758 305.936 136.1 306.068 136.494C306.201 136.885 306.268 137.309 306.268 137.766V137.9C306.268 138.357 306.201 138.781 306.068 139.172C305.936 139.562 305.742 139.904 305.488 140.197C305.238 140.486 304.936 140.713 304.58 140.877C304.229 141.037 303.83 141.117 303.385 141.117C302.939 141.117 302.539 141.037 302.184 140.877C301.828 140.713 301.523 140.486 301.27 140.197C301.02 139.904 300.828 139.562 300.695 139.172C300.562 138.781 300.496 138.357 300.496 137.9ZM301.58 137.766V137.9C301.58 138.217 301.617 138.516 301.691 138.797C301.766 139.074 301.877 139.32 302.025 139.535C302.178 139.75 302.367 139.92 302.594 140.045C302.82 140.166 303.084 140.227 303.385 140.227C303.682 140.227 303.941 140.166 304.164 140.045C304.391 139.92 304.578 139.75 304.727 139.535C304.875 139.32 304.986 139.074 305.061 138.797C305.139 138.516 305.178 138.217 305.178 137.9V137.766C305.178 137.453 305.139 137.158 305.061 136.881C304.986 136.6 304.873 136.352 304.721 136.137C304.572 135.918 304.385 135.746 304.158 135.621C303.936 135.496 303.674 135.434 303.373 135.434C303.076 135.434 302.814 135.496 302.588 135.621C302.365 135.746 302.178 135.918 302.025 136.137C301.877 136.352 301.766 136.6 301.691 136.881C301.617 137.158 301.58 137.453 301.58 137.766ZM307.621 132H308.711V139.77L308.617 141H307.621V132ZM312.994 137.777V137.9C312.994 138.361 312.939 138.789 312.83 139.184C312.721 139.574 312.561 139.914 312.35 140.203C312.139 140.492 311.881 140.717 311.576 140.877C311.271 141.037 310.922 141.117 310.527 141.117C310.125 141.117 309.771 141.049 309.467 140.912C309.166 140.771 308.912 140.57 308.705 140.309C308.498 140.047 308.332 139.73 308.207 139.359C308.086 138.988 308.002 138.57 307.955 138.105V137.566C308.002 137.098 308.086 136.678 308.207 136.307C308.332 135.936 308.498 135.619 308.705 135.357C308.912 135.092 309.166 134.891 309.467 134.754C309.768 134.613 310.117 134.543 310.516 134.543C310.914 134.543 311.268 134.621 311.576 134.777C311.885 134.93 312.143 135.148 312.35 135.434C312.561 135.719 312.721 136.061 312.83 136.459C312.939 136.854 312.994 137.293 312.994 137.777ZM311.904 137.9V137.777C311.904 137.461 311.875 137.164 311.816 136.887C311.758 136.605 311.664 136.359 311.535 136.148C311.406 135.934 311.236 135.766 311.025 135.645C310.814 135.52 310.555 135.457 310.246 135.457C309.973 135.457 309.734 135.504 309.531 135.598C309.332 135.691 309.162 135.818 309.021 135.979C308.881 136.135 308.766 136.314 308.676 136.518C308.59 136.717 308.525 136.924 308.482 137.139V138.551C308.545 138.824 308.646 139.088 308.787 139.342C308.932 139.592 309.123 139.797 309.361 139.957C309.604 140.117 309.902 140.197 310.258 140.197C310.551 140.197 310.801 140.139 311.008 140.021C311.219 139.9 311.389 139.734 311.518 139.523C311.65 139.312 311.748 139.068 311.811 138.791C311.873 138.514 311.904 138.217 311.904 137.9ZM316.996 141.117C316.555 141.117 316.154 141.043 315.795 140.895C315.439 140.742 315.133 140.529 314.875 140.256C314.621 139.982 314.426 139.658 314.289 139.283C314.152 138.908 314.084 138.498 314.084 138.053V137.807C314.084 137.291 314.16 136.832 314.312 136.43C314.465 136.023 314.672 135.68 314.934 135.398C315.195 135.117 315.492 134.904 315.824 134.76C316.156 134.615 316.5 134.543 316.855 134.543C317.309 134.543 317.699 134.621 318.027 134.777C318.359 134.934 318.631 135.152 318.842 135.434C319.053 135.711 319.209 136.039 319.311 136.418C319.412 136.793 319.463 137.203 319.463 137.648V138.135H314.729V137.25H318.379V137.168C318.363 136.887 318.305 136.613 318.203 136.348C318.105 136.082 317.949 135.863 317.734 135.691C317.52 135.52 317.227 135.434 316.855 135.434C316.609 135.434 316.383 135.486 316.176 135.592C315.969 135.693 315.791 135.846 315.643 136.049C315.494 136.252 315.379 136.5 315.297 136.793C315.215 137.086 315.174 137.424 315.174 137.807V138.053C315.174 138.354 315.215 138.637 315.297 138.902C315.383 139.164 315.506 139.395 315.666 139.594C315.83 139.793 316.027 139.949 316.258 140.062C316.492 140.176 316.758 140.232 317.055 140.232C317.438 140.232 317.762 140.154 318.027 139.998C318.293 139.842 318.525 139.633 318.725 139.371L319.381 139.893C319.244 140.1 319.07 140.297 318.859 140.484C318.648 140.672 318.389 140.824 318.08 140.941C317.775 141.059 317.414 141.117 316.996 141.117ZM324.42 139.318C324.42 139.162 324.385 139.018 324.314 138.885C324.248 138.748 324.109 138.625 323.898 138.516C323.691 138.402 323.379 138.305 322.961 138.223C322.609 138.148 322.291 138.061 322.006 137.959C321.725 137.857 321.484 137.734 321.285 137.59C321.09 137.445 320.939 137.275 320.834 137.08C320.729 136.885 320.676 136.656 320.676 136.395C320.676 136.145 320.73 135.908 320.84 135.686C320.953 135.463 321.111 135.266 321.314 135.094C321.521 134.922 321.77 134.787 322.059 134.689C322.348 134.592 322.67 134.543 323.025 134.543C323.533 134.543 323.967 134.633 324.326 134.812C324.686 134.992 324.961 135.232 325.152 135.533C325.344 135.83 325.439 136.16 325.439 136.523H324.355C324.355 136.348 324.303 136.178 324.197 136.014C324.096 135.846 323.945 135.707 323.746 135.598C323.551 135.488 323.311 135.434 323.025 135.434C322.725 135.434 322.48 135.48 322.293 135.574C322.109 135.664 321.975 135.779 321.889 135.92C321.807 136.061 321.766 136.209 321.766 136.365C321.766 136.482 321.785 136.588 321.824 136.682C321.867 136.771 321.941 136.855 322.047 136.934C322.152 137.008 322.301 137.078 322.492 137.145C322.684 137.211 322.928 137.277 323.225 137.344C323.744 137.461 324.172 137.602 324.508 137.766C324.844 137.93 325.094 138.131 325.258 138.369C325.422 138.607 325.504 138.896 325.504 139.236C325.504 139.514 325.445 139.768 325.328 139.998C325.215 140.229 325.049 140.428 324.83 140.596C324.615 140.76 324.357 140.889 324.057 140.982C323.76 141.072 323.426 141.117 323.055 141.117C322.496 141.117 322.023 141.018 321.637 140.818C321.25 140.619 320.957 140.361 320.758 140.045C320.559 139.729 320.459 139.395 320.459 139.043H321.549C321.564 139.34 321.65 139.576 321.807 139.752C321.963 139.924 322.154 140.047 322.381 140.121C322.607 140.191 322.832 140.227 323.055 140.227C323.352 140.227 323.6 140.188 323.799 140.109C324.002 140.031 324.156 139.924 324.262 139.787C324.367 139.65 324.42 139.494 324.42 139.318ZM328.105 134.66V141H327.016V134.66H328.105ZM326.934 132.979C326.934 132.803 326.986 132.654 327.092 132.533C327.201 132.412 327.361 132.352 327.572 132.352C327.779 132.352 327.938 132.412 328.047 132.533C328.16 132.654 328.217 132.803 328.217 132.979C328.217 133.146 328.16 133.291 328.047 133.412C327.938 133.529 327.779 133.588 327.572 133.588C327.361 133.588 327.201 133.529 327.092 133.412C326.986 133.291 326.934 133.146 326.934 132.979ZM332.5 134.66V135.492H329.072V134.66H332.5ZM330.232 133.119H331.316V139.43C331.316 139.645 331.35 139.807 331.416 139.916C331.482 140.025 331.568 140.098 331.674 140.133C331.779 140.168 331.893 140.186 332.014 140.186C332.104 140.186 332.197 140.178 332.295 140.162C332.396 140.143 332.473 140.127 332.523 140.115L332.529 141C332.443 141.027 332.33 141.053 332.189 141.076C332.053 141.104 331.887 141.117 331.691 141.117C331.426 141.117 331.182 141.064 330.959 140.959C330.736 140.854 330.559 140.678 330.426 140.432C330.297 140.182 330.232 139.846 330.232 139.424V133.119ZM335.553 140.344L337.316 134.66H338.477L335.934 141.979C335.875 142.135 335.797 142.303 335.699 142.482C335.605 142.666 335.484 142.84 335.336 143.004C335.188 143.168 335.008 143.301 334.797 143.402C334.59 143.508 334.342 143.561 334.053 143.561C333.967 143.561 333.857 143.549 333.725 143.525C333.592 143.502 333.498 143.482 333.443 143.467L333.438 142.588C333.469 142.592 333.518 142.596 333.584 142.6C333.654 142.607 333.703 142.611 333.73 142.611C333.977 142.611 334.186 142.578 334.357 142.512C334.529 142.449 334.674 142.342 334.791 142.189C334.912 142.041 335.016 141.836 335.102 141.574L335.553 140.344ZM334.258 134.66L335.904 139.582L336.186 140.725L335.406 141.123L333.074 134.66H334.258Z" fill="#0F172A"/>
<path d="M182.506 122.294C179.762 122.294 177.242 121.65 174.946 120.362C172.65 119.074 170.83 117.296 169.486 115.028C168.142 112.732 167.47 110.142 167.47 107.258C167.47 104.402 168.142 101.84 169.486 99.572C170.83 97.276 172.65 95.484 174.946 94.196C177.242 92.908 179.762 92.264 182.506 92.264C185.278 92.264 187.798 92.908 190.066 94.196C192.362 95.484 194.168 97.276 195.484 99.572C196.828 101.84 197.5 104.402 197.5 107.258C197.5 110.142 196.828 112.732 195.484 115.028C194.168 117.296 192.362 119.074 190.066 120.362C187.77 121.65 185.25 122.294 182.506 122.294ZM182.506 117.044C184.27 117.044 185.824 116.652 187.168 115.868C188.512 115.056 189.562 113.908 190.318 112.424C191.074 110.94 191.452 109.218 191.452 107.258C191.452 105.298 191.074 103.59 190.318 102.134C189.562 100.65 188.512 99.516 187.168 98.732C185.824 97.948 184.27 97.556 182.506 97.556C180.742 97.556 179.174 97.948 177.802 98.732C176.458 99.516 175.408 100.65 174.652 102.134C173.896 103.59 173.518 105.298 173.518 107.258C173.518 109.218 173.896 110.94 174.652 112.424C175.408 113.908 176.458 115.056 177.802 115.868C179.174 116.652 180.742 117.044 182.506 117.044ZM218.507 106.964C220.159 107.272 221.517 108.098 222.581 109.442C223.645 110.786 224.177 112.326 224.177 114.062C224.177 115.63 223.785 117.016 223.001 118.22C222.245 119.396 221.139 120.32 219.683 120.992C218.227 121.664 216.505 122 214.517 122H201.875V92.684H213.971C215.959 92.684 217.667 93.006 219.095 93.65C220.551 94.294 221.643 95.19 222.371 96.338C223.127 97.486 223.505 98.788 223.505 100.244C223.505 101.952 223.043 103.38 222.119 104.528C221.223 105.676 220.019 106.488 218.507 106.964ZM207.755 104.78H213.131C214.531 104.78 215.609 104.472 216.365 103.856C217.121 103.212 217.499 102.302 217.499 101.126C217.499 99.95 217.121 99.04 216.365 98.396C215.609 97.752 214.531 97.43 213.131 97.43H207.755V104.78ZM213.677 117.212C215.105 117.212 216.211 116.876 216.995 116.204C217.807 115.532 218.213 114.58 218.213 113.348C218.213 112.088 217.793 111.108 216.953 110.408C216.113 109.68 214.979 109.316 213.551 109.316H207.755V117.212H213.677ZM234.743 97.43V104.78H244.613V109.442H234.743V117.212H245.873V122H228.863V92.642H245.873V97.43H234.743ZM266.336 122L259.868 110.576H257.096V122H251.216V92.684H262.22C264.488 92.684 266.42 93.09 268.016 93.902C269.612 94.686 270.802 95.764 271.586 97.136C272.398 98.48 272.804 99.992 272.804 101.672C272.804 103.604 272.244 105.354 271.124 106.922C270.004 108.462 268.338 109.526 266.126 110.114L273.14 122H266.336ZM257.096 106.166H262.01C263.606 106.166 264.796 105.788 265.58 105.032C266.364 104.248 266.756 103.17 266.756 101.798C266.756 100.454 266.364 99.418 265.58 98.69C264.796 97.934 263.606 97.556 262.01 97.556H257.096V106.166ZM284.003 92.684V122H278.123V92.684H284.003ZM299.934 122.294C297.89 122.294 296.042 121.944 294.39 121.244C292.766 120.544 291.478 119.536 290.526 118.22C289.574 116.904 289.084 115.35 289.056 113.558H295.356C295.44 114.762 295.86 115.714 296.616 116.414C297.4 117.114 298.464 117.464 299.808 117.464C301.18 117.464 302.258 117.142 303.042 116.498C303.826 115.826 304.218 114.958 304.218 113.894C304.218 113.026 303.952 112.312 303.42 111.752C302.888 111.192 302.216 110.758 301.404 110.45C300.62 110.114 299.528 109.75 298.128 109.358C296.224 108.798 294.67 108.252 293.466 107.72C292.29 107.16 291.268 106.334 290.4 105.242C289.56 104.122 289.14 102.638 289.14 100.79C289.14 99.054 289.574 97.542 290.442 96.254C291.31 94.966 292.528 93.986 294.096 93.314C295.664 92.614 297.456 92.264 299.472 92.264C302.496 92.264 304.946 93.006 306.822 94.49C308.726 95.946 309.776 97.99 309.972 100.622H303.504C303.448 99.614 303.014 98.788 302.202 98.144C301.418 97.472 300.368 97.136 299.052 97.136C297.904 97.136 296.98 97.43 296.28 98.018C295.608 98.606 295.272 99.46 295.272 100.58C295.272 101.364 295.524 102.022 296.028 102.554C296.56 103.058 297.204 103.478 297.96 103.814C298.744 104.122 299.836 104.486 301.236 104.906C303.14 105.466 304.694 106.026 305.898 106.586C307.102 107.146 308.138 107.986 309.006 109.106C309.874 110.226 310.308 111.696 310.308 113.516C310.308 115.084 309.902 116.54 309.09 117.884C308.278 119.228 307.088 120.306 305.52 121.118C303.952 121.902 302.09 122.294 299.934 122.294ZM331.954 122L321.286 108.938V122H315.406V92.684H321.286V105.83L331.954 92.684H339.052L326.956 107.216L339.388 122H331.954Z" fill="#FF7A16"/>
</g>
<defs>
<clipPath id="clip0_1_2">
<rect width="384" height="226" fill="white"/>
</clipPath>
</defs>
</svg>
